# xmcd
# Track frame offsets:
# 150
# 13940
# 30032
# 46516
# 58431
# 73137
# 89670
# 103327
# 118458
# 132812
# 146315
# 159845
# 174014
#
# Disc length: 2533 seconds
# Revision: 0
# Processed by: cddbd v1.5.1PL0 Copyright (c) Steve Scherf et al.
# Submitted via: VisiTrax 2.9.10.228 - For more info visit www.synapsa.com
#
DISCID=ac09e30d
DTITLE=Schneider.Raving Rita. - Keep On Larfin'
DYEAR=2004
DGENRE=Comedy.
TTITLE0=I've Had Everything.
TTITLE1=Comedy Country Music's here To Stay.
TTITLE2=Female Chauvanist Sow.
TTITLE3=Does Your chewing Gum Lose Its Flavour?
TTITLE4=Hand Me Down My walkin' Cane.
TTITLE5=Under A Mooloolaba Moon.
TTITLE6=Leave the Dishes In The sink Ma!
TTITLE7=Just Pull The Tooth.
TTITLE8=Welcome To The Great Down Under Land.
TTITLE9=I've Been Everywhere.
TTITLE10=Jingle Jangle Jingle.
TTITLE11=Pommie Nicknames.
TTITLE12=Australia The greatest Place On Earth.
EXTD=
EXTT0=
EXTT1=
EXTT2=
EXTT3=
EXTT4=
EXTT5=
EXTT6=
EXTT7=
EXTT8=
EXTT9=
EXTT10=
EXTT11=
EXTT12=
PLAYORDER=
